<svg width="130" height="33" viewBox="0 0 130 33" fill="none" xmlns="http://www.w3.org/2000/svg">
<path d="M19.2905 15.4668C19.3045 14.3787 19.5936 13.3119 20.1307 12.3655C20.6678 11.4191 21.4356 10.6239 22.3626 10.054C21.7737 9.21295 20.9968 8.52079 20.0936 8.0325C19.1904 7.54422 18.1858 7.27326 17.1596 7.24115C14.9704 7.01137 12.8481 8.5511 11.7326 8.5511C10.5955 8.5511 8.87791 7.26397 7.02838 7.30202C5.83206 7.34067 4.66614 7.68855 3.64424 8.31177C2.62234 8.93499 1.7793 9.8123 1.19726 10.8582C-1.324 15.2234 0.556635 21.6387 2.97179 25.1672C4.18014 26.895 5.59236 28.8249 7.44022 28.7565C9.24846 28.6815 9.9238 27.6035 12.1065 27.6035C14.2689 27.6035 14.9026 28.7565 16.7879 28.713C18.7282 28.6815 19.9507 26.9775 21.1167 25.2334C21.9849 24.0023 22.653 22.6416 23.0962 21.2018C21.9689 20.725 21.0069 19.927 20.3302 18.9071C19.6534 17.8873 19.2918 16.6908 19.2905 15.4668Z" fill="#0A0A0A"/>
<path d="M15.7324 4.92066C16.7903 3.65064 17.3115 2.01823 17.1853 0.370117C15.569 0.539879 14.076 1.31237 13.0038 2.53367C12.4795 3.1303 12.078 3.82441 11.8221 4.57632C11.5663 5.32822 11.4612 6.12318 11.5128 6.91574C12.3212 6.92407 13.121 6.74884 13.8519 6.40326C14.5828 6.05768 15.2258 5.55075 15.7324 4.92066Z" fill="#0A0A0A"/>
<path d="M42.1491 24.3834H35.9784L34.4965 28.759H31.8828L37.7276 12.5703H40.4431L46.2879 28.759H43.6296L42.1491 24.3834ZM36.6174 22.3643H41.5087L39.0975 15.2629H39.03L36.6174 22.3643Z" fill="#0A0A0A"/>
<path d="M58.9109 22.8578C58.9109 26.5256 56.9478 28.8821 53.9853 28.8821C53.2349 28.9214 52.4886 28.7485 51.8318 28.3833C51.175 28.0181 50.6344 27.4753 50.2717 26.8171H50.2157V32.6632H47.793V16.9557H50.1381V18.9189H50.1826C50.5619 18.2638 51.1117 17.7239 51.7735 17.3564C52.4352 16.989 53.1842 16.8079 53.9408 16.8323C56.9363 16.8323 58.9109 19.2002 58.9109 22.8578ZM56.4208 22.8578C56.4208 20.4682 55.1859 18.8972 53.3017 18.8972C51.4506 18.8972 50.2055 20.5013 50.2055 22.8578C50.2055 25.236 51.4506 26.8286 53.3017 26.8286C55.1859 26.8286 56.4208 25.2691 56.4208 22.8578Z" fill="#0A0A0A"/>
<path d="M72.2508 23.1703C72.2508 26.8381 70.2877 29.1946 67.3252 29.1946C66.5747 29.2339 65.8284 29.061 65.1716 28.6958C64.5149 28.3306 63.9742 27.7878 63.6116 27.1296H63.5555V32.9757H61.1328V17.2682H63.4778V19.2314H63.5224C63.9017 18.5763 64.4515 18.0364 65.1133 17.6689C65.775 17.3015 66.524 17.1204 67.2806 17.1448C70.2762 17.1448 72.2508 19.5127 72.2508 23.1703ZM69.7606 23.1703C69.7606 20.7807 68.5257 19.2097 66.6415 19.2097C64.7904 19.2097 63.5454 20.8138 63.5454 23.1703C63.5454 25.5485 64.7904 27.1411 66.6415 27.1411C68.5257 27.1411 69.7606 25.5816 69.7606 23.1703Z" fill="#0A0A0A"/>
<path d="M80.4878 24.2479C80.6674 25.8532 82.2269 26.9073 84.3581 26.9073C86.4001 26.9073 87.8692 25.8532 87.8692 24.4057C87.8692 23.1491 86.9832 22.3968 84.8851 21.8811L82.7871 21.3757C79.8144 20.6577 78.4343 19.2675 78.4343 17.0115C78.4343 14.2184 80.8685 12.2998 84.325 12.2998C87.7457 12.2998 90.0908 14.2184 90.1697 17.0115H87.7241C87.5777 15.396 86.2422 14.4208 84.2905 14.4208C82.3389 14.4208 81.0034 15.4074 81.0034 16.8435C81.0034 17.988 81.8564 18.6615 83.943 19.177L85.7266 19.615C89.0481 20.4005 90.4281 21.7347 90.4281 24.1026C90.4281 27.1313 88.0156 29.0282 84.1785 29.0282C80.5884 29.0282 78.1644 27.1759 78.0078 24.2478L80.4878 24.2479Z" fill="#0A0A0A"/>
<path d="M95.6542 14.1621V16.9553H97.8987V18.8738H95.6542V25.3806C95.6542 26.3915 96.1036 26.8625 97.0902 26.8625C97.3567 26.8579 97.6227 26.8392 97.8872 26.8065V28.7135C97.4436 28.7964 96.9927 28.834 96.5415 28.8256C94.1519 28.8256 93.22 27.928 93.22 25.639V18.8738H91.5039V16.9553H93.22V14.1621H95.6542Z" fill="#0A0A0A"/>
<path d="M99.1992 22.8577C99.1992 19.1441 101.386 16.8105 104.797 16.8105C108.219 16.8105 110.396 19.1441 110.396 22.8577C110.396 26.5816 108.231 28.9049 104.797 28.9049C101.365 28.9049 99.1992 26.5815 99.1992 22.8577ZM107.928 22.8577C107.928 20.3103 106.76 18.8068 104.797 18.8068C102.834 18.8068 101.668 20.3217 101.668 22.8577C101.668 25.4154 102.834 26.9075 104.797 26.9075C106.76 26.9075 107.928 25.4154 107.928 22.8577Z" fill="#0A0A0A"/>
<path d="M112.395 16.9556H114.705V18.9646H114.761C114.918 18.3371 115.285 17.7827 115.802 17.3943C116.319 17.006 116.954 16.8075 117.6 16.8321C117.879 16.8312 118.158 16.8615 118.43 16.9225V19.1886C118.078 19.0809 117.71 19.0315 117.342 19.0422C116.99 19.028 116.639 19.09 116.313 19.2241C115.988 19.3583 115.695 19.5613 115.455 19.8193C115.215 20.0772 115.034 20.3841 114.924 20.7187C114.814 21.0533 114.777 21.4078 114.817 21.7577V28.7585H112.395L112.395 16.9556Z" fill="#0A0A0A"/>
<path d="M129.6 25.2919C129.274 27.4345 127.188 28.9049 124.518 28.9049C121.084 28.9049 118.953 26.6045 118.953 22.9138C118.953 19.2116 121.096 16.8105 124.416 16.8105C127.681 16.8105 129.735 19.0537 129.735 22.6324V23.4625H121.399V23.6089C121.36 24.0432 121.415 24.4808 121.558 24.8926C121.702 25.3043 121.932 25.6808 122.232 25.997C122.532 26.3132 122.896 26.5619 123.3 26.7265C123.704 26.8912 124.138 26.9681 124.574 26.952C125.146 27.0057 125.721 26.8731 126.212 26.574C126.703 26.2748 127.085 25.8252 127.3 25.2919L129.6 25.2919ZM121.41 21.7693H127.311C127.333 21.3787 127.274 20.9878 127.137 20.6212C127.001 20.2546 126.79 19.9202 126.518 19.6389C126.246 19.3576 125.919 19.1356 125.557 18.9867C125.196 18.8378 124.807 18.7653 124.416 18.7737C124.021 18.7713 123.63 18.8471 123.265 18.9967C122.9 19.1463 122.568 19.3667 122.289 19.6452C122.009 19.9237 121.788 20.2548 121.637 20.6193C121.486 20.9839 121.409 21.3747 121.41 21.7693Z" fill="#0A0A0A"/>
<path d="M36.3136 0.38285C36.8215 0.346401 37.3312 0.423134 37.8059 0.607513C38.2806 0.791892 38.7084 1.07932 39.0586 1.44907C39.4087 1.81882 39.6724 2.26166 39.8307 2.74567C39.9889 3.22968 40.0378 3.74278 39.9738 4.24796C39.9738 6.73304 38.6307 8.16152 36.3136 8.16152H33.5039V0.38285H36.3136ZM34.7121 7.06145H36.1787C36.5416 7.08314 36.9048 7.02363 37.2419 6.88725C37.5789 6.75087 37.8813 6.54105 38.127 6.27307C38.3728 6.00508 38.5556 5.68568 38.6624 5.3381C38.7691 4.99052 38.797 4.62352 38.744 4.26381C38.7931 3.90553 38.7624 3.5408 38.6541 3.19578C38.5457 2.85075 38.3624 2.53396 38.1172 2.2681C37.872 2.00225 37.5711 1.79391 37.2359 1.65803C36.9008 1.52214 36.5398 1.46206 36.1787 1.4821H34.7121V7.06145Z" fill="#0A0A0A"/>
<path d="M41.3373 5.22453C41.3004 4.83876 41.3445 4.44953 41.4669 4.08181C41.5892 3.71409 41.787 3.376 42.0477 3.08922C42.3084 2.80244 42.6261 2.5733 42.9805 2.4165C43.3349 2.25971 43.7181 2.17871 44.1057 2.17871C44.4932 2.17871 44.8765 2.25971 45.2309 2.4165C45.5852 2.5733 45.903 2.80244 46.1636 3.08922C46.4243 3.376 46.6221 3.71409 46.7444 4.08181C46.8668 4.44953 46.9109 4.83876 46.874 5.22453C46.9116 5.6107 46.868 6.00047 46.746 6.36878C46.624 6.73709 46.4263 7.0758 46.1655 7.36315C45.9048 7.65049 45.5869 7.88011 45.2321 8.03724C44.8774 8.19438 44.4937 8.27555 44.1057 8.27555C43.7177 8.27555 43.334 8.19438 42.9792 8.03724C42.6245 7.88011 42.3065 7.65049 42.0458 7.36315C41.7851 7.0758 41.5873 6.73709 41.4653 6.36878C41.3433 6.00047 41.2997 5.6107 41.3373 5.22453ZM45.6824 5.22453C45.6824 3.95208 45.1108 3.20795 44.1076 3.20795C43.1006 3.20795 42.5341 3.95208 42.5341 5.22454C42.5341 6.50719 43.1006 7.24558 44.1076 7.24558C45.1108 7.24556 45.6824 6.50208 45.6824 5.22453Z" fill="#0A0A0A"/>
<path d="M54.2343 8.16126H53.0325L51.8192 3.83782H51.7276L50.5194 8.16126H49.329L47.7109 2.29102H48.886L49.9376 6.77035H50.0242L51.2311 2.29102H52.3425L53.5494 6.77035H53.641L54.6875 2.29102H55.846L54.2343 8.16126Z" fill="#0A0A0A"/>
<path d="M57.207 2.29194H58.3223V3.22448H58.4088C58.5557 2.88955 58.8034 2.60878 59.1174 2.42131C59.4314 2.23383 59.7961 2.149 60.1606 2.17863C60.4462 2.15716 60.733 2.20022 60.9998 2.30464C61.2665 2.40906 61.5063 2.57215 61.7014 2.78183C61.8966 2.99152 62.042 3.24242 62.127 3.51595C62.212 3.78948 62.2344 4.07863 62.1925 4.36198V8.16212H61.034V4.65291C61.034 3.70955 60.624 3.2404 59.7672 3.2404C59.5733 3.23137 59.3797 3.26437 59.1997 3.33716C59.0198 3.40994 58.8576 3.52078 58.7245 3.66208C58.5914 3.80337 58.4904 3.97178 58.4284 4.15577C58.3664 4.33975 58.345 4.53496 58.3655 4.72801V8.16219H57.207L57.207 2.29194Z" fill="#0A0A0A"/>
<path d="M64.0352 0H65.1937V8.16181H64.0352V0Z" fill="#0A0A0A"/>
<path d="M66.806 5.22464C66.7692 4.83884 66.8133 4.44959 66.9357 4.08186C67.058 3.71412 67.2559 3.37602 67.5166 3.08923C67.7773 2.80245 68.095 2.57331 68.4494 2.41651C68.8039 2.25971 69.1871 2.17871 69.5747 2.17871C69.9623 2.17871 70.3455 2.25971 70.7 2.41651C71.0544 2.57331 71.3721 2.80245 71.6328 3.08923C71.8935 3.37602 72.0913 3.71412 72.2137 4.08186C72.3361 4.44959 72.3802 4.83884 72.3434 5.22464C72.3809 5.61082 72.3373 6.0006 72.2152 6.36891C72.0932 6.73722 71.8954 7.07592 71.6347 7.36326C71.3739 7.65059 71.056 7.8802 70.7012 8.03733C70.3464 8.19446 69.9627 8.27563 69.5747 8.27563C69.1867 8.27563 68.803 8.19446 68.4482 8.03733C68.0934 7.8802 67.7755 7.65059 67.5147 7.36326C67.254 7.07592 67.0562 6.73722 66.9342 6.36891C66.8121 6.0006 66.7685 5.61082 66.806 5.22464ZM71.1511 5.22464C71.1511 3.95219 70.5795 3.20806 69.5763 3.20806C68.5693 3.20806 68.0028 3.95219 68.0028 5.22465C68.0028 6.5073 68.5693 7.24569 69.5763 7.24569C70.5795 7.24567 71.1511 6.50219 71.1511 5.22464Z" fill="#0A0A0A"/>
<path d="M73.5625 6.50213C73.5625 5.44546 74.3493 4.83629 75.7458 4.74972L77.336 4.65806V4.15137C77.336 3.53137 76.926 3.18127 76.1342 3.18127C75.4874 3.18127 75.0393 3.4187 74.9107 3.83373H73.7891C73.9075 2.82544 74.856 2.17871 76.1876 2.17871C77.6593 2.17871 78.4894 2.91136 78.4894 4.15137V8.16225H77.3741V7.33729H77.2825C77.0964 7.63321 76.8352 7.87445 76.5254 8.03638C76.2156 8.1983 75.8684 8.27512 75.5192 8.25897C75.2728 8.2846 75.0237 8.25831 74.7881 8.18179C74.5524 8.10527 74.3354 7.98021 74.1511 7.81469C73.9667 7.64917 73.8191 7.44685 73.7177 7.22078C73.6163 6.9947 73.5635 6.7499 73.5625 6.50213ZM77.336 6.00053V5.50976L75.9024 5.60142C75.094 5.65552 74.7274 5.93051 74.7274 6.44802C74.7274 6.97635 75.1857 7.2838 75.8159 7.2838C76.0006 7.30249 76.1871 7.28385 76.3644 7.22898C76.5417 7.17411 76.7062 7.08413 76.848 6.9644C76.9898 6.84467 77.1061 6.69764 77.1899 6.53205C77.2737 6.36646 77.3234 6.1857 77.336 6.00053Z" fill="#0A0A0A"/>
<path d="M80.0117 5.22417C80.0117 3.36927 80.9653 2.1942 82.4484 2.1942C82.8153 2.17729 83.1794 2.26516 83.4982 2.44754C83.8169 2.62991 84.0772 2.89925 84.2486 3.22408H84.3352V0H85.4937V8.16181H84.3835V7.23435H84.2919C84.1073 7.557 83.8379 7.82299 83.513 8.00352C83.188 8.18405 82.8199 8.27225 82.4484 8.25855C80.9551 8.25862 80.0117 7.08352 80.0117 5.22417ZM81.2085 5.22417C81.2085 6.46926 81.7954 7.21848 82.7769 7.21848C83.7534 7.21848 84.3568 6.45845 84.3568 5.22926C84.3568 4.00581 83.747 3.23495 82.7769 3.23495C81.8017 3.23495 81.2085 3.98926 81.2085 5.22417Z" fill="#0A0A0A"/>
<path d="M90.2904 5.22453C90.2535 4.83876 90.2977 4.44953 90.42 4.08181C90.5423 3.71409 90.7402 3.376 91.0008 3.08922C91.2615 2.80244 91.5792 2.5733 91.9336 2.4165C92.288 2.25971 92.6713 2.17871 93.0588 2.17871C93.4463 2.17871 93.8296 2.25971 94.184 2.4165C94.5384 2.5733 94.8561 2.80244 95.1167 3.08922C95.3774 3.376 95.5752 3.71409 95.6976 4.08181C95.8199 4.44953 95.864 4.83876 95.8271 5.22453C95.8647 5.6107 95.8211 6.00047 95.6991 6.36878C95.5771 6.73709 95.3794 7.0758 95.1187 7.36315C94.8579 7.65049 94.54 7.88011 94.1852 8.03724C93.8305 8.19438 93.4468 8.27555 93.0588 8.27555C92.6708 8.27555 92.2871 8.19438 91.9323 8.03724C91.5776 7.88011 91.2596 7.65049 90.9989 7.36315C90.7382 7.0758 90.5405 6.73709 90.4184 6.36878C90.2964 6.00047 90.2528 5.6107 90.2904 5.22453ZM94.6355 5.22453C94.6355 3.95208 94.0639 3.20795 93.0607 3.20795C92.0537 3.20795 91.4872 3.95208 91.4872 5.22454C91.4872 6.50719 92.0537 7.24558 93.0607 7.24558C94.0639 7.24556 94.6355 6.50208 94.6355 5.22453Z" fill="#0A0A0A"/>
<path d="M97.3828 2.29194H98.498V3.22448H98.5846C98.7315 2.88955 98.9792 2.60878 99.2932 2.42131C99.6072 2.23383 99.9719 2.149 100.336 2.17863C100.622 2.15716 100.909 2.20022 101.176 2.30464C101.442 2.40906 101.682 2.57215 101.877 2.78183C102.072 2.99152 102.218 3.24242 102.303 3.51595C102.388 3.78948 102.41 4.07863 102.368 4.36198V8.16212H101.21V4.65291C101.21 3.70955 100.8 3.2404 99.943 3.2404C99.7491 3.23137 99.5555 3.26437 99.3755 3.33716C99.1955 3.40994 99.0334 3.52078 98.9003 3.66208C98.7672 3.80337 98.6661 3.97178 98.6042 4.15577C98.5422 4.33975 98.5208 4.53496 98.5413 4.72801V8.16219H97.3828V2.29194Z" fill="#0A0A0A"/>
<path d="M108.908 0.830078V2.31832H110.18V3.29416H108.908V6.31267C108.908 6.92757 109.161 7.19683 109.738 7.19683C109.886 7.19635 110.033 7.18743 110.18 7.17009V8.13509C109.972 8.17231 109.761 8.19211 109.55 8.19429C108.261 8.19429 107.748 7.74106 107.748 6.60929V3.29411H106.816V2.31827H107.748V0.830078H108.908Z" fill="#0A0A0A"/>
<path d="M111.77 0H112.918V3.23494H113.01C113.164 2.89688 113.418 2.61452 113.738 2.42634C114.059 2.23816 114.429 2.15332 114.799 2.18336C115.084 2.1679 115.368 2.21534 115.631 2.3223C115.895 2.42925 116.132 2.59308 116.325 2.80211C116.518 3.01113 116.663 3.2602 116.748 3.53153C116.834 3.80287 116.859 4.08978 116.821 4.37181V8.16182H115.661V4.65761C115.661 3.71998 115.225 3.24511 114.406 3.24511C114.207 3.22878 114.007 3.25615 113.819 3.32532C113.632 3.39448 113.462 3.50376 113.321 3.64552C113.18 3.78727 113.072 3.95808 113.004 4.14598C112.936 4.33389 112.91 4.53435 112.928 4.73336V8.1618H111.77L111.77 0Z" fill="#0A0A0A"/>
<path d="M123.573 6.57637C123.416 7.11288 123.075 7.57695 122.61 7.88742C122.145 8.19788 121.586 8.33496 121.03 8.27468C120.643 8.28488 120.259 8.21081 119.903 8.05759C119.548 7.90438 119.23 7.67569 118.972 7.38741C118.714 7.09912 118.522 6.75814 118.409 6.38814C118.296 6.01813 118.265 5.62797 118.318 5.24472C118.267 4.86029 118.298 4.46929 118.411 4.09817C118.524 3.72706 118.715 3.3845 118.972 3.09369C119.228 2.80288 119.544 2.57061 119.899 2.4126C120.253 2.25459 120.637 2.17453 121.025 2.17783C122.658 2.17783 123.643 3.29376 123.643 5.13712V5.54137H119.498V5.60629C119.48 5.82171 119.507 6.03855 119.578 6.24289C119.648 6.44724 119.761 6.63459 119.908 6.79292C120.055 6.95126 120.234 7.07709 120.432 7.16234C120.631 7.2476 120.845 7.2904 121.062 7.28799C121.339 7.32126 121.619 7.27136 121.868 7.14464C122.117 7.01792 122.322 6.8201 122.458 6.57633L123.573 6.57637ZM119.498 4.68455H122.463C122.478 4.48754 122.451 4.28964 122.385 4.10359C122.318 3.91753 122.214 3.74743 122.077 3.60422C121.941 3.461 121.777 3.34784 121.594 3.272C121.412 3.19616 121.216 3.15932 121.018 3.16385C120.818 3.16133 120.619 3.19895 120.433 3.27449C120.248 3.35003 120.079 3.46196 119.938 3.60368C119.796 3.74541 119.684 3.91406 119.609 4.09969C119.533 4.28533 119.496 4.48419 119.498 4.68455Z" fill="#0A0A0A"/>
</svg>
