<svg width="24" height="24" viewBox="0 0 24 24" fill="none" xmlns="http://www.w3.org/2000/svg">
<g clip-path="url(#clip0_3005_4529)">
<rect width="24" height="24" rx="5.6" fill="white"/>
<path d="M24.0477 5.85426C21.5646 5.85426 21.3163 9.80634 21.0419 12.1378C21.0419 12.1386 21.0412 12.1391 21.0405 12.1391C21.0397 12.1391 21.0391 12.1396 21.039 12.1404C20.715 14.7263 20.5163 18.424 18.0332 18.424" stroke="black" stroke-width="2.36522"/>
<path d="M18.0332 18.424C15.5497 18.424 15.3887 14.5996 15.0177 12.1391C14.6947 9.99692 14.483 5.85426 11.9995 5.85426C9.51636 5.85426 9.26807 9.80634 8.99366 12.1378C8.99358 12.1386 8.99294 12.1391 8.99219 12.1391C8.99144 12.1391 8.9908 12.1397 8.99071 12.1404C8.66676 14.7263 8.46807 18.424 5.98493 18.424C3.50137 18.424 3.34038 14.5996 2.96939 12.1391C2.64638 9.99692 2.43473 5.85426 -0.048827 5.85426" stroke="black" stroke-width="2.36522"/>
</g>
<defs>
<clipPath id="clip0_3005_4529">
<rect width="24" height="24" rx="5.6" fill="white"/>
</clipPath>
</defs>
</svg>
