<svg width="3898" height="595" viewBox="0 0 3898 595" fill="none" xmlns="http://www.w3.org/2000/svg">
<path d="M307.93 0C131.252 0.000641105 182.768 593.297 25.2676 593.298C17.1901 593.298 9.66628 591.737 2.63672 588.776C1.63131 575.394 0.749546 561.531 0 547.252C81.4285 407.869 68.7203 0 215.21 0H307.93Z" fill="url(#paint0_linear_3009_4720)"/>
<path d="M3897.77 593.678L3805.05 593.678C3648.13 593.678 3673.88 125.789 3570.92 21.1379L3570.26 20.4169C3583.06 7.69043 3597.82 0.542539 3615.11 0.542538C3772.61 0.542524 3721.09 593.678 3897.77 593.678Z" fill="url(#paint1_linear_3009_4720)"/>
<path d="M3622.33 0.460449H3529.61C3372.69 0.460449 3398.44 468.339 3295.48 572.988L3294.82 573.709C3307.62 586.435 3322.37 593.583 3339.66 593.583C3497.17 593.583 3445.65 0.460449 3622.33 0.460449Z" fill="url(#paint2_linear_3009_4720)"/>
<path d="M3346.4 593.678L3253.68 593.678C3096.76 593.678 3122.51 125.789 3019.55 21.1379L3018.89 20.4169C3031.69 7.69043 3046.44 0.542539 3063.73 0.542538C3221.23 0.542524 3169.72 593.678 3346.4 593.678Z" fill="url(#paint3_linear_3009_4720)"/>
<path d="M3065.82 2.09961C3223.07 2.0996 3175.46 593.602 3340.76 593.602C3498.01 593.602 3442.58 2.09961 3618.98 2.09961" stroke="url(#paint4_linear_3009_4720)" stroke-width="1.06258"/>
<path d="M3070.96 0.580078H2978.24C2821.32 0.580078 2847.08 468.459 2744.12 573.108L2743.46 573.828C2756.26 586.555 2771.01 593.702 2788.3 593.702C2945.8 593.702 2894.28 0.580078 3070.96 0.580078Z" fill="url(#paint5_linear_3009_4720)"/>
<path d="M2795.04 593.77L2702.32 593.77C2545.4 593.77 2571.16 125.881 2468.19 21.2302L2467.54 20.5092C2480.33 7.78271 2495.09 0.634824 2512.38 0.634823C2669.88 0.634809 2618.36 593.77 2795.04 593.77Z" fill="url(#paint6_linear_3009_4720)"/>
<path d="M2789.4 593.602C2946.65 593.602 2891.22 2.09961 3067.61 2.09961" stroke="url(#paint7_linear_3009_4720)" stroke-width="1.06258"/>
<path d="M2519.59 0.460449H2426.87C2269.96 0.460449 2295.71 468.339 2192.75 572.988L2192.09 573.709C2204.89 586.435 2219.64 593.583 2236.93 593.583C2394.43 593.583 2342.92 0.460449 2519.59 0.460449Z" fill="url(#paint8_linear_3009_4720)"/>
<path d="M2243.67 593.678L2150.95 593.678C1994.03 593.678 2019.79 125.789 1916.83 21.1379L1916.17 20.4169C1928.97 7.69043 1943.72 0.542539 1961.01 0.542538C2118.51 0.542524 2066.99 593.678 2243.67 593.678Z" fill="url(#paint9_linear_3009_4720)"/>
<path d="M1963.1 2.09961C2120.35 2.0996 2072.74 593.602 2238.04 593.602C2395.29 593.602 2339.86 2.09961 2516.26 2.09961C2670.32 2.09961 2618.5 593.602 2791.19 593.602" stroke="url(#paint10_linear_3009_4720)" stroke-width="1.06258"/>
<path d="M1968.23 0.580078H1875.51C1718.59 0.580078 1744.34 468.459 1641.38 573.108L1640.72 573.828C1653.52 586.555 1668.27 593.702 1685.56 593.702C1843.06 593.702 1791.55 0.580078 1968.23 0.580078Z" fill="url(#paint11_linear_3009_4720)"/>
<path d="M1692.31 593.77L1599.59 593.77C1442.67 593.77 1468.42 125.881 1365.46 21.2302L1364.8 20.5092C1377.6 7.78271 1392.36 0.634824 1409.65 0.634823C1567.15 0.634809 1515.63 593.77 1692.31 593.77Z" fill="url(#paint12_linear_3009_4720)"/>
<path d="M1410.02 2.09961C1567.27 2.0996 1521.37 593.618 1686.67 593.618C1843.92 593.618 1788.49 2.11583 1964.88 2.11583" stroke="url(#paint13_linear_3009_4720)" stroke-width="1.06258"/>
<path d="M1413.51 0.460449H1320.79C1163.87 0.460449 1189.63 468.339 1086.67 572.988L1086.01 573.709C1098.81 586.435 1113.56 593.583 1130.85 593.583C1288.35 593.583 1236.83 0.460449 1413.51 0.460449Z" fill="url(#paint14_linear_3009_4720)"/>
<path d="M1137.59 593.678L1044.87 593.678C887.951 593.678 913.707 125.789 810.745 21.1379L810.086 20.4169C822.885 7.69043 837.638 0.542539 854.928 0.542538C1012.43 0.542524 960.913 593.678 1137.59 593.678Z" fill="url(#paint15_linear_3009_4720)"/>
<path d="M857.027 2.09961C1014.27 2.0996 966.666 593.602 1131.97 593.602C1289.21 593.602 1233.79 2.09961 1410.18 2.09961" stroke="url(#paint16_linear_3009_4720)" stroke-width="1.06258"/>
<path d="M862.15 0.580078H769.429C612.51 0.580078 638.265 468.459 535.304 573.108L534.645 573.828C547.444 586.555 562.197 593.702 579.487 593.702C736.988 593.702 685.471 0.580078 862.15 0.580078Z" fill="url(#paint17_linear_3009_4720)"/>
<path d="M586.222 593.77L493.502 593.77C336.582 593.77 362.338 125.881 259.376 21.2302L258.717 20.5092C271.516 7.78271 286.269 0.634824 303.559 0.634823C461.06 0.634809 409.544 593.77 586.222 593.77Z" fill="url(#paint18_linear_3009_4720)"/>
<path d="M580.588 593.602C737.834 593.602 682.409 2.09961 858.802 2.09961" stroke="url(#paint19_linear_3009_4720)" stroke-width="1.06258"/>
<path d="M307.439 2.09961C461.499 2.09961 409.685 593.602 582.377 593.602" stroke="url(#paint20_linear_3009_4720)" stroke-width="1.06258"/>
<path d="M3618.39 1.64062C3771.24 1.64062 3718.88 590.585 3895.28 590.585" stroke="url(#paint21_linear_3009_4720)" stroke-width="1.06258"/>
<path d="M2.01758 589.378C185.787 647.727 124.335 1.65723 307.444 1.65723" stroke="url(#paint22_linear_3009_4720)" stroke-width="1.06258"/>
<defs>
<linearGradient id="paint0_linear_3009_4720" x1="56.3995" y1="545.4" x2="-2.00418" y2="-3.62163" gradientUnits="userSpaceOnUse">
<stop stop-opacity="0"/>
<stop offset="1" stop-color="#A83EFC"/>
</linearGradient>
<linearGradient id="paint1_linear_3009_4720" x1="3810.02" y1="593.678" x2="3599.81" y2="3.25555" gradientUnits="userSpaceOnUse">
<stop stop-opacity="0"/>
<stop offset="0.5" stop-color="#A83EFC"/>
<stop offset="1"/>
</linearGradient>
<linearGradient id="paint2_linear_3009_4720" x1="3347.89" y1="634.1" x2="3548.68" y2="-19.6627" gradientUnits="userSpaceOnUse">
<stop/>
<stop offset="1" stop-color="#A83EFC"/>
</linearGradient>
<linearGradient id="paint3_linear_3009_4720" x1="3191.84" y1="395.544" x2="3080.49" y2="-8.00409" gradientUnits="userSpaceOnUse">
<stop stop-color="#A83EFC"/>
<stop offset="1"/>
</linearGradient>
<linearGradient id="paint4_linear_3009_4720" x1="3376.01" y1="-0.432747" x2="3376.01" y2="610.283" gradientUnits="userSpaceOnUse">
<stop stop-color="#DAACFF"/>
<stop offset="0.459504" stop-color="#420274" stop-opacity="0"/>
<stop offset="1" stop-color="#DAACFF"/>
</linearGradient>
<linearGradient id="paint5_linear_3009_4720" x1="2796.53" y1="634.219" x2="2997.32" y2="-19.5431" gradientUnits="userSpaceOnUse">
<stop/>
<stop offset="1" stop-color="#A83EFC"/>
</linearGradient>
<linearGradient id="paint6_linear_3009_4720" x1="2640.48" y1="395.636" x2="2529.14" y2="-7.9118" gradientUnits="userSpaceOnUse">
<stop stop-color="#A83EFC"/>
<stop offset="1"/>
</linearGradient>
<linearGradient id="paint7_linear_3009_4720" x1="2824.65" y1="-0.432747" x2="2824.65" y2="610.283" gradientUnits="userSpaceOnUse">
<stop stop-color="#DAACFF"/>
<stop offset="0.459504" stop-color="#420274" stop-opacity="0"/>
<stop offset="1" stop-color="#DAACFF"/>
</linearGradient>
<linearGradient id="paint8_linear_3009_4720" x1="2245.16" y1="634.1" x2="2445.95" y2="-19.6627" gradientUnits="userSpaceOnUse">
<stop/>
<stop offset="1" stop-color="#A83EFC"/>
</linearGradient>
<linearGradient id="paint9_linear_3009_4720" x1="2089.12" y1="395.544" x2="1977.77" y2="-8.00409" gradientUnits="userSpaceOnUse">
<stop stop-color="#A83EFC"/>
<stop offset="1"/>
</linearGradient>
<linearGradient id="paint10_linear_3009_4720" x1="2273.29" y1="-0.432747" x2="2273.29" y2="610.283" gradientUnits="userSpaceOnUse">
<stop stop-color="#DAACFF"/>
<stop offset="0.459504" stop-color="#420274" stop-opacity="0"/>
<stop offset="1" stop-color="#DAACFF"/>
</linearGradient>
<linearGradient id="paint11_linear_3009_4720" x1="1693.79" y1="634.219" x2="1894.58" y2="-19.5431" gradientUnits="userSpaceOnUse">
<stop/>
<stop offset="1" stop-color="#A83EFC"/>
</linearGradient>
<linearGradient id="paint12_linear_3009_4720" x1="1537.75" y1="395.636" x2="1426.4" y2="-7.9118" gradientUnits="userSpaceOnUse">
<stop stop-color="#A83EFC"/>
<stop offset="1"/>
</linearGradient>
<linearGradient id="paint13_linear_3009_4720" x1="1721.92" y1="-0.432748" x2="1721.92" y2="610.283" gradientUnits="userSpaceOnUse">
<stop stop-color="#DAACFF"/>
<stop offset="0.459504" stop-color="#420274" stop-opacity="0"/>
<stop offset="1" stop-color="#DAACFF"/>
</linearGradient>
<linearGradient id="paint14_linear_3009_4720" x1="1139.08" y1="634.1" x2="1339.87" y2="-19.6627" gradientUnits="userSpaceOnUse">
<stop/>
<stop offset="1" stop-color="#A83EFC"/>
</linearGradient>
<linearGradient id="paint15_linear_3009_4720" x1="983.034" y1="395.544" x2="871.687" y2="-8.00409" gradientUnits="userSpaceOnUse">
<stop stop-color="#A83EFC"/>
<stop offset="1"/>
</linearGradient>
<linearGradient id="paint16_linear_3009_4720" x1="1167.21" y1="-0.432747" x2="1167.21" y2="610.283" gradientUnits="userSpaceOnUse">
<stop stop-color="#DAACFF"/>
<stop offset="0.459504" stop-color="#420274" stop-opacity="0"/>
<stop offset="1" stop-color="#DAACFF"/>
</linearGradient>
<linearGradient id="paint17_linear_3009_4720" x1="587.717" y1="634.219" x2="788.504" y2="-19.5431" gradientUnits="userSpaceOnUse">
<stop/>
<stop offset="1" stop-color="#A83EFC"/>
</linearGradient>
<linearGradient id="paint18_linear_3009_4720" x1="431.665" y1="395.636" x2="320.318" y2="-7.9118" gradientUnits="userSpaceOnUse">
<stop stop-color="#A83EFC"/>
<stop offset="1"/>
</linearGradient>
<linearGradient id="paint19_linear_3009_4720" x1="615.835" y1="-0.432747" x2="615.835" y2="610.283" gradientUnits="userSpaceOnUse">
<stop stop-color="#DAACFF"/>
<stop offset="0.459504" stop-color="#420274" stop-opacity="0"/>
<stop offset="1" stop-color="#DAACFF"/>
</linearGradient>
<linearGradient id="paint20_linear_3009_4720" x1="64.4722" y1="-0.432748" x2="64.4722" y2="610.283" gradientUnits="userSpaceOnUse">
<stop stop-color="#DAACFF"/>
<stop offset="0.459504" stop-color="#420274" stop-opacity="0"/>
<stop offset="1" stop-color="#DAACFF"/>
</linearGradient>
<linearGradient id="paint21_linear_3009_4720" x1="3701.61" y1="1.64062" x2="4005.56" y2="222.16" gradientUnits="userSpaceOnUse">
<stop stop-color="#DAACFF"/>
<stop offset="1" stop-opacity="0"/>
</linearGradient>
<linearGradient id="paint22_linear_3009_4720" x1="185.654" y1="70.4918" x2="-186.886" y2="337.609" gradientUnits="userSpaceOnUse">
<stop stop-color="#DAACFF"/>
<stop offset="1" stop-color="#420274" stop-opacity="0"/>
</linearGradient>
</defs>
</svg>
