<svg width="28" height="28" viewBox="0 0 28 28" fill="none" xmlns="http://www.w3.org/2000/svg">
<path d="M22.5 7V18.2998L14.2998 24.7002L6 18.2998V7L14.2998 4L22.5 7ZM14.127 8C12.4491 8 11.3165 9.26618 11.3164 11.1602V12.375C10.7092 12.4162 10.4004 12.7766 10.4004 13.4971V17.5947C10.4005 18.3665 10.7508 18.7266 11.4609 18.7266H16.793C17.5031 18.7266 17.8426 18.3665 17.8428 17.5947V13.4971C17.8427 12.7767 17.5446 12.4163 16.9375 12.375V11.1602C16.9374 9.26622 15.8048 8.00005 14.127 8ZM14.127 9.04004C15.1665 9.04009 15.8661 9.83238 15.8662 11.0469V12.3652H12.3867V11.0469C12.3868 9.83234 13.0873 9.04004 14.127 9.04004Z" fill="#D756F6"/>
</svg>
