<svg width="28" height="28" viewBox="0 0 28 28" fill="none" xmlns="http://www.w3.org/2000/svg">
<path d="M14 25C7.93921 25 3 20.0716 3 14C3 7.93921 7.93921 3 14 3C20.0716 3 25 7.93921 25 14C25 20.0716 20.0716 25 14 25ZM7.01176 13.6333C7.01176 15.3373 7.61569 16.9118 8.73725 18.1304C9.01765 18.4431 9.4598 18.4647 9.71863 18.1627C9.96667 17.8931 9.93431 17.5265 9.65392 17.1814C8.79118 16.2324 8.31667 15.0029 8.31667 13.6333C8.31667 12.2961 8.79118 11.0451 9.65392 10.1176C9.93431 9.78333 9.96667 9.3951 9.72941 9.13627C9.4598 8.82353 9.01765 8.83431 8.73725 9.16863C7.62647 10.3765 7.01176 11.9618 7.01176 13.6333ZM19.6941 13.6333C19.6941 15.0029 19.2196 16.2324 18.3569 17.1814C18.0657 17.5265 18.0333 17.8931 18.2814 18.1627C18.5402 18.4647 18.9824 18.4431 19.2627 18.1304C20.3843 16.9118 20.999 15.3373 20.999 13.6333C20.999 11.9618 20.3735 10.3765 19.2627 9.16863C18.9824 8.83431 18.5402 8.82353 18.2706 9.13627C18.0333 9.3951 18.0657 9.78333 18.3569 10.1176C19.2196 11.0451 19.6941 12.2961 19.6941 13.6333ZM9.72941 13.6333C9.72941 14.6039 10.0637 15.5314 10.6461 16.2647C10.9049 16.6098 11.401 16.6206 11.6706 16.3186C11.8971 16.049 11.8647 15.7255 11.5843 15.348C11.2284 14.8843 11.0343 14.302 11.0343 13.6333C11.0343 13.0186 11.2392 12.4255 11.5951 11.9402C11.8647 11.5735 11.8863 11.2392 11.6706 10.9804C11.3902 10.6676 10.9049 10.6892 10.6461 11.0343C10.0637 11.7676 9.72941 12.6843 9.72941 13.6333ZM16.9657 13.6333C16.9657 14.302 16.7716 14.8843 16.4157 15.348C16.1353 15.7255 16.1029 16.049 16.3294 16.3186C16.599 16.6206 17.0951 16.6098 17.3539 16.2647C17.9363 15.5314 18.2706 14.6039 18.2706 13.6333C18.2706 12.6843 17.9363 11.7676 17.3539 11.0343C17.0951 10.6892 16.6098 10.6676 16.3294 10.9804C16.1137 11.2392 16.1461 11.5735 16.4157 11.9402C16.7608 12.4255 16.9657 13.0186 16.9657 13.6333ZM12.7059 13.6333C12.7059 14.1294 12.9863 14.55 13.3853 14.7657V20.5245C13.3853 20.9235 13.6441 21.2039 14 21.2039C14.3667 21.2039 14.6255 20.9343 14.6255 20.5245V14.7549C15.0137 14.5392 15.2941 14.1186 15.2941 13.6333C15.2941 12.9216 14.7225 12.35 14 12.35C13.2882 12.35 12.7059 12.9216 12.7059 13.6333Z" fill="#D756F6"/>
</svg>
